<mxfile host="65bd71144e">
    <diagram id="pnvnSVLrPY8N83POa-B3" name="Page-1">
        <mxGraphModel dx="1156" dy="643" grid="1" gridSize="10" guides="1" tooltips="1" connect="1" arrows="1" fold="1" page="1" pageScale="1" pageWidth="850" pageHeight="1100" math="0" shadow="0">
            <root>
                <mxCell id="0"/>
                <mxCell id="1" parent="0"/>
                <mxCell id="2" value="Clients" style="points=[[0.13,0.02,0],[0.5,0,0],[0.87,0.02,0],[0.885,0.4,0],[0.985,0.985,0],[0.5,1,0],[0.015,0.985,0],[0.115,0.4,0]];verticalLabelPosition=bottom;sketch=0;html=1;verticalAlign=top;aspect=fixed;align=center;pointerEvents=1;shape=mxgraph.cisco19.laptop;fillColor=#005073;strokeColor=none;" parent="1" vertex="1">
                    <mxGeometry x="40" y="170.5" width="60" height="42" as="geometry"/>
                </mxCell>
                <mxCell id="5" value="" style="edgeStyle=none;html=1;startArrow=classic;startFill=1;" parent="1" source="3" target="4" edge="1">
                    <mxGeometry relative="1" as="geometry"/>
                </mxCell>
                <mxCell id="6" value="" style="edgeStyle=none;html=1;startArrow=classic;startFill=1;" parent="1" source="19" target="2" edge="1">
                    <mxGeometry relative="1" as="geometry"/>
                </mxCell>
                <mxCell id="3" value="Social Media Website" style="aspect=fixed;html=1;points=[];align=center;image;fontSize=12;image=img/lib/azure2/app_services/App_Services.svg;" parent="1" vertex="1">
                    <mxGeometry x="370" y="280" width="64" height="64" as="geometry"/>
                </mxCell>
                <mxCell id="4" value="Social Media Database" style="aspect=fixed;html=1;points=[];align=center;image;fontSize=12;image=img/lib/azure2/databases/SQL_Database.svg;" parent="1" vertex="1">
                    <mxGeometry x="376" y="390" width="48" height="64" as="geometry"/>
                </mxCell>
                <mxCell id="7" value="&lt;font style=&quot;font-size: 16px;&quot;&gt;&lt;b&gt;Chat App - With notification system&lt;br&gt;&lt;/b&gt;&lt;/font&gt;piers-sinclair.com" style="text;html=1;strokeColor=none;fillColor=none;align=center;verticalAlign=middle;whiteSpace=wrap;rounded=0;" parent="1" vertex="1">
                    <mxGeometry y="10" width="321" height="30" as="geometry"/>
                </mxCell>
                <mxCell id="8" value="Messages Database" style="aspect=fixed;html=1;points=[];align=center;image;fontSize=12;image=img/lib/azure2/databases/Azure_Cosmos_DB.svg;" parent="1" vertex="1">
                    <mxGeometry x="524" y="390" width="64" height="64" as="geometry"/>
                </mxCell>
                <mxCell id="12" value="" style="edgeStyle=none;html=1;startArrow=classic;startFill=1;entryX=0.015;entryY=0.542;entryDx=0;entryDy=0;entryPerimeter=0;" parent="1" source="9" target="13" edge="1">
                    <mxGeometry relative="1" as="geometry"/>
                </mxCell>
                <mxCell id="22" value="" style="edgeStyle=none;html=1;startArrow=classic;startFill=1;" parent="1" source="23" target="21" edge="1">
                    <mxGeometry relative="1" as="geometry"/>
                </mxCell>
                <mxCell id="24" value="" style="edgeStyle=none;html=1;startArrow=classic;startFill=1;" parent="1" source="9" target="23" edge="1">
                    <mxGeometry relative="1" as="geometry"/>
                </mxCell>
                <mxCell id="9" value="SignalR" style="shape=image;verticalLabelPosition=bottom;verticalAlign=top;imageAspect=0;image=data:image/svg+xml,PHN2ZyB4bWxucz0iaHR0cDovL3d3dy53My5vcmcvMjAwMC9zdmciIGlkPSJzdmc4IiB2ZXJzaW9uPSIxLjEiIHZpZXdCb3g9IjAgMCAxOTguNDM3NSAxOTguNDM3NSIgaGVpZ2h0PSIxOTguNDM3NW1tIiB3aWR0aD0iMTk4LjQzNzVtbSI+CiAgPGcgdHJhbnNmb3JtPSJ0cmFuc2xhdGUoLTcuNjMzNDg5OSwtOC45NzUzNzc0KSIgaWQ9ImxheWVyMSI+CiAgICA8cGF0aCBzdHlsZT0iZmlsbDojMDBhYmVjO3N0cm9rZS13aWR0aDozLjAwNjYyODUxIiBjbGFzcz0ic3QwIiBkPSJNIDg4LjUxMTc4MiwxNTMuMjkzNTYgOTkuNjM2MzI4LDEyNi4yMzM5IGggMjQuOTU1MDEyIGMgOS45MjE5MywwIDE4LjAzOTc3LC04LjExNzk2IDE4LjAzOTc3LC0xOC4wMzk3OCAwLC05LjkyMTkzIC04LjExNzg0LC0xOC4wMzk3NyAtMTguMDM5NzcsLTE4LjAzOTc3IEggNDMuNDEyMzUzIEwgODguNTExNzgyLDQ1LjA1NDkxNyB2IDE4LjAzOTc3IGggMzYuMDc5NTU4IGMgMjQuOTU0OTksMCA0NS4wOTk0MiwyMC4xNDQzMiA0NS4wOTk0Miw0NS4wOTk0MzMgMCwyNC4zNTM2NCAtMTkuMjQyMzgsNDMuODk2NzEgLTQyLjk5NDc2LDQ0Ljc5ODc2IGwgMzYuNjgwOSwzNi42ODA3OSBjIDI1Ljg1NjkzLC0xOC4wMzk3NyA0Mi42OTQwOSwtNDcuODA1MzQgNDIuNjk0MDksLTgxLjQ3OTU1IDAsLTU0LjcyMDY4MyAtNDQuNDk4MDcsLTk5LjIxODc0MjYgLTk5LjIxODc1LC05OS4yMTg3NDI2IC01NC43MjA2ODMsMCAtOTkuMjE4NzUwMSw0NC40OTgwNTk2IC05OS4yMTg3NTAxLDk5LjIxODc0MjYgMCw1NC43MjA1NyA0NC40OTgwNjcxLDk5LjIxODc2IDk5LjIxODc1MDEsOTkuMjE4NzYgMTAuODIzODYsMCAyMS4zNDcwNSwtMS44MDM5OCAzMC45NjgzLC01LjExMTM3IHoiIGlkPSJwYXRoMzcxNSIvPgogIDwvZz4KPC9zdmc+;aspect=fixed;" parent="1" vertex="1">
                    <mxGeometry x="370" y="159.5" width="60" height="60" as="geometry"/>
                </mxCell>
                <mxCell id="14" value="" style="edgeStyle=none;html=1;startArrow=classic;startFill=1;" parent="1" source="13" target="8" edge="1">
                    <mxGeometry relative="1" as="geometry"/>
                </mxCell>
                <mxCell id="26" value="" style="edgeStyle=none;html=1;startArrow=classic;startFill=1;" parent="1" source="13" target="25" edge="1">
                    <mxGeometry relative="1" as="geometry"/>
                </mxCell>
                <mxCell id="27" value="" style="edgeStyle=none;html=1;startArrow=classic;startFill=1;" edge="1" parent="1" source="13" target="21">
                    <mxGeometry relative="1" as="geometry"/>
                </mxCell>
                <mxCell id="13" value="Message Processing Service" style="aspect=fixed;html=1;points=[];align=center;image;fontSize=12;image=img/lib/azure2/compute/Function_Apps.svg;" parent="1" vertex="1">
                    <mxGeometry x="520" y="157.5" width="68" height="60" as="geometry"/>
                </mxCell>
                <mxCell id="15" value="" style="edgeStyle=none;html=1;startArrow=classic;startFill=1;entryX=0.985;entryY=0.985;entryDx=0;entryDy=0;entryPerimeter=0;" parent="1" source="17" target="2" edge="1">
                    <mxGeometry relative="1" as="geometry">
                        <mxPoint x="100" y="310" as="sourcePoint"/>
                        <mxPoint x="100" y="199.5" as="targetPoint"/>
                    </mxGeometry>
                </mxCell>
                <mxCell id="18" value="" style="edgeStyle=none;html=1;startArrow=classic;startFill=1;" parent="1" source="17" target="3" edge="1">
                    <mxGeometry relative="1" as="geometry"/>
                </mxCell>
                <mxCell id="17" value="Front Door Load Balancer" style="aspect=fixed;html=1;points=[];align=center;image;fontSize=12;image=img/lib/azure2/networking/Front_Doors.svg;" parent="1" vertex="1">
                    <mxGeometry x="186.5" y="282" width="68" height="60" as="geometry"/>
                </mxCell>
                <mxCell id="20" value="" style="edgeStyle=none;html=1;startArrow=classic;startFill=1;" parent="1" source="19" target="9" edge="1">
                    <mxGeometry relative="1" as="geometry"/>
                </mxCell>
                <mxCell id="19" value="Application Gateway Load Balancer" style="aspect=fixed;html=1;points=[];align=center;image;fontSize=12;image=img/lib/azure2/networking/Application_Gateways.svg;" parent="1" vertex="1">
                    <mxGeometry x="220" y="159.5" width="64" height="64" as="geometry"/>
                </mxCell>
                <mxCell id="21" value="User Status Cache" style="aspect=fixed;html=1;points=[];align=center;image;fontSize=12;image=img/lib/azure2/databases/Cache_Redis.svg;" parent="1" vertex="1">
                    <mxGeometry x="524" y="64" width="64" height="52" as="geometry"/>
                </mxCell>
                <mxCell id="23" value="User Status Service" style="aspect=fixed;html=1;points=[];align=center;image;fontSize=12;image=img/lib/azure2/compute/Function_Apps.svg;" parent="1" vertex="1">
                    <mxGeometry x="368" y="60" width="68" height="60" as="geometry"/>
                </mxCell>
                <mxCell id="25" value="Media Storage" style="aspect=fixed;html=1;points=[];align=center;image;fontSize=12;image=img/lib/azure2/storage/Storage_Accounts.svg;" parent="1" vertex="1">
                    <mxGeometry x="670" y="161.5" width="65" height="52" as="geometry"/>
                </mxCell>
                <mxCell id="28" value="Notification System" style="ellipse;shape=cloud;whiteSpace=wrap;html=1;" vertex="1" parent="1">
                    <mxGeometry x="660" y="20" width="160" height="80" as="geometry"/>
                </mxCell>
                <mxCell id="29" value="" style="edgeStyle=none;html=1;startArrow=none;startFill=0;" edge="1" parent="1" source="13" target="28">
                    <mxGeometry relative="1" as="geometry">
                        <mxPoint x="598" y="197.5" as="sourcePoint"/>
                        <mxPoint x="680" y="197.5" as="targetPoint"/>
                    </mxGeometry>
                </mxCell>
                <mxCell id="30" value="" style="edgeStyle=orthogonalEdgeStyle;html=1;startArrow=classic;startFill=1;endArrow=none;endFill=0;" edge="1" parent="1" source="2" target="28">
                    <mxGeometry relative="1" as="geometry">
                        <mxPoint x="598" y="171.35365179524786" as="sourcePoint"/>
                        <mxPoint x="690.5822671884387" y="100.15694016306202" as="targetPoint"/>
                        <Array as="points">
                            <mxPoint x="80" y="50"/>
                        </Array>
                    </mxGeometry>
                </mxCell>
            </root>
        </mxGraphModel>
    </diagram>
</mxfile>